<svg width="43" height="41" viewBox="0 0 43 41" fill="none" xmlns="http://www.w3.org/2000/svg">
<path d="M9.97058 32.1805C9.61701 32.1098 9.33416 32.0391 8.98059 31.8977C8.62703 31.7562 8.34417 31.6855 8.06132 31.5441C7.4249 31.2612 6.85919 30.9077 6.29349 30.4834C5.16207 29.7055 4.2428 28.6449 3.53567 27.372C2.82853 26.1699 2.40425 24.7556 2.33354 23.4121C2.26283 22.7049 2.33354 22.0685 2.40425 21.3614C2.47497 21.0078 2.54568 20.725 2.61639 20.3714C2.68711 20.0178 2.82853 19.735 2.89925 19.3814L2.96996 20.3714C2.96996 20.725 3.04067 21.0078 3.11139 21.3614C3.1821 21.9978 3.32353 22.6342 3.46495 23.1999C3.74781 24.4021 4.17209 25.5335 4.80851 26.5942C5.44493 27.6549 6.15206 28.6448 7.07133 29.5641C7.49561 29.9884 7.99061 30.4127 8.4856 30.837C8.69774 31.0491 8.98059 31.2612 9.26345 31.4734L9.97058 32.1805ZM9.75844 34.7262C9.5463 34.8676 9.26345 34.9383 8.98059 35.0091C8.69774 35.0798 8.4856 35.1505 8.20275 35.1505C7.70775 35.2212 7.14205 35.2919 6.57634 35.2212C5.51564 35.1505 4.38423 34.8676 3.46495 34.3726C2.47497 33.8776 1.62641 33.0998 1.0607 32.1805C0.777847 31.7562 0.494993 31.2612 0.282853 30.7663C0.21214 30.5541 0.141427 30.2713 0.0707133 29.9884C0.0707133 29.7763 0 29.5641 0 29.2813C0.21214 29.4934 0.353567 29.7056 0.494993 29.847C0.707133 30.0591 0.84856 30.2713 0.989987 30.4127C1.34355 30.7663 1.62641 31.1198 1.97997 31.4027C2.68711 32.0391 3.39424 32.6048 4.2428 33.0291C5.02065 33.4534 5.93992 33.8069 6.78848 34.0898C7.21276 34.2312 7.70775 34.3019 8.20275 34.4433C8.41489 34.5141 8.69774 34.5141 8.90988 34.5848C9.26345 34.6555 9.47559 34.6555 9.75844 34.7262ZM25.7397 0.359514C26.0932 0.430227 26.3761 0.571654 26.7296 0.71308C27.0832 0.854507 27.3661 0.995934 27.6489 1.13736C28.2853 1.49093 28.851 1.84449 29.4167 2.26877C30.5482 3.11733 31.4674 4.24875 32.1039 5.52159C32.7403 6.79443 33.0938 8.20869 33.0938 9.55225C33.0938 10.2594 33.0231 10.8958 32.8817 11.6029C32.811 11.9565 32.7403 12.2394 32.5988 12.5929C32.4574 12.9465 32.3867 13.2293 32.2453 13.5122L32.1746 12.5222C32.1746 12.1686 32.1746 11.8858 32.1039 11.5322L31.8917 9.62296C31.6796 8.42083 31.2553 7.21871 30.6896 6.08729C30.1239 4.95588 29.4167 3.96589 28.5682 3.04662C28.1439 2.55163 27.6489 2.12735 27.2246 1.63235C27.0125 1.42021 26.7296 1.20807 26.4468 0.995934L25.7397 0.359514ZM31.8917 0.0766602C32.1746 0.147373 32.3867 0.218087 32.5988 0.359514C32.811 0.430227 33.0938 0.571654 33.306 0.71308C33.7303 0.995934 34.1545 1.27879 34.5788 1.63235C35.3567 2.33949 35.9931 3.18805 36.3467 4.17803C36.7709 5.16802 36.9124 6.22872 36.7709 7.28942C36.7002 7.78441 36.5588 8.27941 36.4174 8.7744C36.3467 8.98654 36.2052 9.26939 36.1345 9.48153C35.9931 9.69367 35.9224 9.90581 35.7102 10.118V9.41082V8.70369C35.7102 8.2087 35.6395 7.78441 35.6395 7.36013C35.4981 6.44086 35.3567 5.5923 35.0031 4.81445C34.6495 3.96589 34.2253 3.25876 33.7303 2.48091C33.4474 2.12735 33.1646 1.70307 32.8817 1.3495C32.7403 1.13736 32.5988 0.995934 32.3867 0.783794C32.2453 0.430227 32.0331 0.218087 31.8917 0.0766602Z" fill="#42ADE2"/>
<path d="M5.65709 10.6129C4.24282 11.2494 3.74783 12.9465 4.38425 14.3607L13.2941 32.9583L18.2441 30.6248L9.33418 11.9565C8.69776 10.5422 7.07135 9.9058 5.65709 10.6129ZM29.0632 25.392L34.296 22.9171L24.1133 1.70305C23.4061 0.288786 21.709 -0.347634 20.224 0.359499C18.8098 1.06663 18.1733 2.76375 18.8805 4.24873L29.0632 25.392Z" fill="#FFDD67"/>
<path d="M20.2948 0.28888C20.1533 0.359594 20.0119 0.430307 19.8705 0.571733C21.214 0.218167 22.6283 0.854587 23.2647 2.12743L33.4474 23.3414L34.3667 22.9172L24.184 1.70315C23.4769 0.218167 21.7797 -0.418253 20.2948 0.28888Z" fill="#EBA352"/>
<path d="M18.244 30.5543L23.689 27.9379L13.2941 6.29962C12.587 4.81464 10.7484 4.10751 9.26345 4.81464C7.77847 5.52177 7.14205 7.36032 7.84918 8.8453L18.244 30.5543Z" fill="#FFDD67"/>
<path d="M9.26339 4.88529C9.12196 4.956 8.98054 5.02672 8.83911 5.16814C10.1827 4.81458 11.7384 5.451 12.3748 6.79455L18.8097 20.3008L20.3654 21.2201L13.2941 6.37027C12.5869 4.81458 10.8191 4.17816 9.26339 4.88529Z" fill="#EBA352"/>
<path d="M22.8404 26.2408L28.2853 23.6244L17.8904 1.98611C17.1833 0.501133 15.3447 -0.206001 13.8598 0.571846C12.3748 1.27898 11.7384 3.11753 12.4455 4.60251L22.8404 26.2408Z" fill="#FFDD67"/>
<path d="M13.8598 0.501013C13.7184 0.571727 13.577 0.713153 13.4355 0.783866C14.7791 0.4303 16.3348 1.06672 16.9712 2.41027L24.2547 17.6844L25.8104 18.6036L17.8905 1.98599C17.1833 0.4303 15.3448 -0.20612 13.8598 0.501013ZM5.65707 10.613C5.51564 10.6837 5.37421 10.7544 5.23279 10.8959C6.50563 10.5423 7.84918 11.1787 8.41489 12.4516L13.7184 23.5536L15.2741 24.4728L9.33416 12.0273C8.69774 10.5423 7.07134 9.90589 5.65707 10.613Z" fill="#EBA352"/>
<path d="M41.5795 8.49169C39.6702 7.00671 36.5589 8.63312 35.0032 13.7245C33.9425 17.2601 33.801 18.3208 31.5382 19.3815L30.2654 16.7652C30.2654 16.7652 10.1828 26.4529 10.9606 28.0086C10.9606 28.0086 13.3649 35.5042 17.4663 38.9691C23.5476 44.2019 37.761 38.6156 38.3974 25.1093C38.751 17.2601 43.6302 10.1181 41.5795 8.49169Z" fill="#FFDD67"/>
<path d="M41.5795 8.49158C41.2259 8.20872 40.8016 8.0673 40.3773 7.99658C40.4481 8.0673 40.5895 8.0673 40.6602 8.13801C42.7816 9.76442 40.5895 13.5122 39.3874 16.9065C38.3974 19.5936 37.5488 22.3514 37.6902 25.0385C38.2559 36.7769 26.4468 42.3633 19.3755 40.2419C26.3054 43.1411 39.1752 37.6255 38.6095 25.3921C38.4681 22.705 39.2459 20.0886 40.3066 17.26C41.438 13.8658 43.6302 10.118 41.5795 8.49158Z" fill="#EBA352"/>
<path d="M32.1747 19.0986C27.7904 19.5936 21.3555 25.8871 25.8812 32.7463C22.5576 25.8164 28.0026 21.1493 31.4675 19.5229C31.8211 19.2401 32.1747 19.0986 32.1747 19.0986Z" fill="#EBA352"/>
</svg>
